/* XPM */
static char * cdemt_xpm[] = {
"229 77 2 1",
" 	m sel_color",
".	m bs_color",
"  .. ... ....... .....     ..... ... ... .     . .         .....     ...         ....... .        .. ... ....... ....... .....         . ....... ....... ....... ... ..        . ....... .......          ...... .                   ",
"  ...................     ................    .....        .....    ....        ..........        ............................         ................................         .................         ........                   ",
"  ...................     ................     ....         ...    .....        ..........        ............................         ................................        ..................         ........         .......   ",
"  ...................     ................  . ......        ...    .....    .   ..........  .     ............................         ................................     .   .................         ........        .........  ",
"  .. ....... .......     ... ....... .....     .....         .    .. ...        .... .....        .. ....... ....... ....... .         ..... ....... ....... ....... ..        ..... ....... ....         .. .....         . ......  ",
".....................    .................    .......        .    ......        ..........        .............................        ................................         .................         ........        ...........",
"....................     .................     ......        .   .......        ..........        ............................         ................................        ..................         ........         ..........",
"....................    ..................    ........  .        ........       ..........      . ............................. .      ................................ .       .................       . ........      . ...........",
" ....... ....... ...     ....... ....... .     . .....           .......         ....... .        ...... ....... ....... ......        . ....... ....... ....... ......        . ....... .......         ....... .         ..... ....",
"...................     ..................    .........         ........        ..........        .............................         ...............................         ................         .........        ...........",
"...................    ...................     ........        .........        ..........       ...............................        ...............................        .................         .........         ..........",
"................... .  ...................  . .........     .  .........    .   ..........  .     ...............................   .   ...............................     .   ...............     .   ..........  .     ...........",
".... ....... .....     ..... ....... .....     ..... ...       ..... ...        .... .....       ... ....... ....... ....... ...         ... ....... ....... ....... ..        ..... ....... ..         .... .....         . ....... ",
"... . ............    ....................    ..........      ..........        ..........        ...............................        ..............................         ...............        ...........        ...........",
"..     ...........    ....................     .........     ...........        ..........       .................................        .............................        ...............         ...........         ..........",
"..    ...........     ....................    ...........    ............       ...........     . ................................. .   . ............................. .       .............   .    .............      . ...........",
" .     . .......      .. ....... ....... .     . ....... .   ... .......         ....... .        ...... ....... ....... ....... ...         ... ....... ..... . ......          ....... ..          ... ....... .         ..... ....",
".     ...........    .....................    ..........................        ...........   .   ................................... .       .............    ........         .........          ..............          ..........",
"       .........     .................           .....................           . .........       . . ...............................           . . .         .....                              ............                       ",
"    . ...........   ..................      .     ...................       .       ......... . . . . . .................................   .               .  .... .       .               .   ..............              .       .",
"       ..... ...     ... .                         . . . . . . .   .                 .......                           ..... ....... .....                     . .                             . . . ....... .                       ",
"................    . .                     ....                            ...............                             .....................     . . .               ....................            ...............................",
"...............              . . .          ....                               ............                            ......................    .......              ....................            ...............................",
"............... .   .   . ...........   .   .......     .   ... . .     .       .............   .       . . . . .       .....................   ...........     .     ...................       . . .................................",
" ....... ......          ....... .....      .... ...         ... .....           ....... ......        . ....... ..    . ....... ....... ...     ....... ...           . ....... .......          ...... ......... ..... ....... ....",
"...............         ...............     ........        .............         .............         ...........     ....................    ............           .................          ........... .     .................",
"..............         ................     ........         .............         ............         ...........    .....................    ............            ................          ..........       ..................",
"..............      . .................     .........       ............... .       ...........     .   ........... .   ................... .   .............       .   ...............     .     ...........       .................",
".... ....... .        ...... ....... ...     .......         ....... .......         ....... ..        ..... ....... ....... ....... ......    ..... .......             ... ....... .            .. .......       . ....... ....... ",
".............        .................... ..........        .................        ..........         ...................................    .............    .        ..............           ..........        .................",
"............         ...............................         ................         .........         ..................................     .............    .        .............            ...... .           . . ............",
".............   .   ................................    .   .................   .     ......... .       ..................................    ..............    ..      . ...........   ..      . .......       .       . ...........",
" ... ... ...         ... ....... ... ... ....... ...         ... ... ... .....         . ......        . ....... ....... ....... ... ... .    .. ....... ...     .        ...... ....    .        .. ...                  ...... ... ",
"............        ................................        ..................        .........         .................................     ..............    ...       ...........   ..        ....... ..        .................",
"...........         ................................         .................         ........         ........   ......................     ..............     ..        .........    ..        ..........        .................",
"........... .       ................................        ..................         ........         .........   .....................   .................   ...         .......     ..  .     ...........       .................",
".... ......          ....... ....... ....... .......         ....... ....... .         ..... ..         .... ...     ....... ....... ...     ....... .......     ...         ......    ...        .. .......         ....... ....... ",
"...........         ................................        ..................         ........         . . . .     ....................     ...............    ....        .......   ....        ..........        .................",
"...........         ................................         .................         ........                     ....................     ...............     ...         .....    ....        ..........        .................",
"...........     .   ................................    .   ..................  .      ........ .       .       .   .....................   ................    .....   .    .....    ....      . ..........    .   .................",
" ....... ..         .... ....... ....... ....... ...         ... ....... .....         . ......        . ..... .    .... ....... ......     .... ....... ...     ....         ..     ... .        ...... ...        .... ....... ....",
"...........         ................................        ..................         ........        .........    ...................     ................    ......        ...    .....        ..........        .................",
"...........         ................................         .................         ........        .........    ..................     .................     .....         .    ......        ..........        .................",
"........... .       .................................       ..................      .  ........     .  ................................    ..................   .......     .  .    ......  .     ...........       .................",
".... .......         ....... ....... ....... .......         ....... ....... .         ..... ..        ..... ....... ....... ....... .     . ....... .......     ... ..        .   . .....        .. .......         ....... ....... ",
"............        ................................        ..................        .........        ...............................    ..................    ........           .......        ..........        .................",
"............         ...............................         .................        .........        ...............................    ..................    ........           .......        ..........        .................",
".............   .   ................................    .   .................   .     ......... .      ..............................   . ..................    .........       . ........      . ..........    .   .................",
" ....... ...         ... ....... ....... ....... ...         ... ....... ....         .. ......        . ....... ....... ....... ....    ....... ....... ...     .......         ....... .        ...... ...        .... ....... ....",
".............        ...............................        .................        ..........        ..............................    ...................    .........        .........        ..........        .................",
"..............       ...............................         ...............         ..........        .............................     ...................     .........       .........        ..........       ..................",
"...............       ..............................        ............... .       ...........     .  .............. . .............   .....................   ..........  .   ..........  .     ...........       .................",
".... ....... .         ..... ....... ....... .......         ....... .....         . ....... ..        ..... .......     ... .......     ... ....... .......     ... .....     ..... .....        .. .......       . ....... ....... ",
"................        ............................        ..............        .............         ............    ...........     ....................    ...........    ...........        ...........       .................",
"................         .................   .......         ...........         ..............         ............     ..........     ....................     ...........   ...........        ..........        .................",
"................... .   . ............. .   ........    .     ......... .       ............... .       ............    ...........    .....................    ..........................      . ...........   . . .................",
" ....... ....... .             . . .         ...                               . ....... ..                              ....... .     . ....... .......           ..... ....... .......           . ... .....       . . ....... ....",
"..................... .                     ....                             ..............                              .........    ..................            ...................               .........   . . . . ...........",
"...................... .                 . .....                           ................                              .........     ........... .....            ..................               ........... .   . . ............",
". . ....................... .   . . ... . . . . . ......................... ......................................................  . ..... .       .   . . ....... ... . . . . . . . . . ..................... . . . . . . . . . . .",
"      ...... ....... ......    ..... .             . ....... ....... ...             ....... ....... ....... ....... ....... ....     ..                       ....                            ..... ....... .                       ",
"      .....................    .......              ...................             .............................................     .         . ... .       .....                               ............                       ",
"     .....................     ....... .            ...................          . ..............................................    .       ...........       ..... .           . .               ........... .           . .   .   ",
".     ....................    ............      .   ................... .       .................................................       .   .............      ........ .       ..........      .   ..............      . ...........",
"      .. ....... ....... .     . ... ... .           ... ....... ... .           ....... . .      .. ... ....... ....... .......           ..... ....... .     . ... ..        . ....... ...          .. ....... .         ..... ... ",
".     ...................     ............            ...............           ..........        ..............................          .................   .........         .............         ............        ...........",
".    ....................     ............            ...............           ..........       ...............................         .................     ........        ...............         ...........         ..........",
".........................   . ............  . .       ...............       .   ..........  .     ...............................       ................... .  ........     .   ...............         ..........        ...........",
".... ....... ....... ...     ....... .....             ..... .......            .... .....        .. ....... ....... ....... ...         ... ....... .......   ..... ..        ..... ....... ...         ... .....         . ....... ",
"........................     .............    .        .............            ....... .         . . ..........................        ...............................         ................         .........        ...........",
"........................     .............     .        ...........    .        ......                  .......................         ...............................        .................         .........         ..........",
".........................   ..............    ...       ...........    ..       ......  .       .       ....................... .       ............................... .       .................       ..........      . ...........",
" ....... ....... ......     .... ....... .     .         ....... .     .         ....... .         . ... ....... ....... .....         . ....... ....... ....... ......        . ....... .......          ...... .         ..... ....",
". .....................     ..............    ...        .........    ..        ..........        .............................        ................................         .................         ........        ...........",
"  .....................    ...............     ..        .........   ...        ..........        ............................         ................................        ..................         ........         ........  ",
"  .....................    ...............  . ....  .     .......   ....    .   ..........  .     ............................      .  ................................     .   .................   .     ........  .     ......... .",
"  .. ....... ....... .     . ....... .....     ...         . ...     ...        .... .....        .. ....... ....... ....... .         ..... ....... ....... ....... ..        ..... ....... ....         .. .....         .   .     "};
